<svg width="34" height="34" viewBox="0 0 34 34" fill="none" xmlns="http://www.w3.org/2000/svg">
<g clip-path="url(#clip0_40_3)">
<path d="M26.9167 15.5833H10.115L15.2575 9.40668C15.498 9.11737 15.6137 8.74439 15.5791 8.36979C15.5446 7.99518 15.3626 7.64964 15.0733 7.40918C14.784 7.16872 14.411 7.05303 14.0364 7.08757C13.6618 7.12211 13.3163 7.30404 13.0758 7.59335L5.99251 16.0933C5.94485 16.161 5.90223 16.232 5.865 16.3058C5.865 16.3767 5.86501 16.4192 5.76584 16.49C5.70163 16.6524 5.66801 16.8254 5.66667 17C5.66801 17.1747 5.70163 17.3476 5.76584 17.51C5.76584 17.5808 5.76584 17.6233 5.865 17.6942C5.90223 17.768 5.94485 17.8391 5.99251 17.9067L13.0758 26.4067C13.209 26.5666 13.3758 26.6952 13.5644 26.7833C13.7529 26.8715 13.9585 26.917 14.1667 26.9167C14.4977 26.9173 14.8185 26.802 15.0733 26.5908C15.2168 26.4719 15.3354 26.3259 15.4223 26.161C15.5092 25.9962 15.5627 25.8159 15.5798 25.6303C15.597 25.4448 15.5773 25.2577 15.522 25.0797C15.4667 24.9018 15.3768 24.7365 15.2575 24.5933L10.115 18.4167H26.9167C27.2924 18.4167 27.6527 18.2674 27.9184 18.0017C28.1841 17.7361 28.3333 17.3757 28.3333 17C28.3333 16.6243 28.1841 16.264 27.9184 15.9983C27.6527 15.7326 27.2924 15.5833 26.9167 15.5833Z" fill="#757BA1"/>
</g>
<defs>
<clipPath id="clip0_40_3">
<rect width="34" height="34" fill="white"/>
</clipPath>
</defs>
</svg>
